<svg width="400" height="120" viewBox="0 0 400 120" fill="none" xmlns="http://www.w3.org/2000/svg">
<path d="M51.8583 120C51.8583 120 0 104.602 0 29.0265V0H103.894V29.0265C103.894 101.947 51.8583 120 51.8583 120Z" fill="#51AF3D"/>
<path d="M132.743 58.0533V17.1685H157.876V20.1773C157.876 23.1861 155.398 25.664 152.389 25.664H142.832V34.3366H155.398V37.1684C155.398 40.3542 152.92 42.8321 149.734 42.8321H143.009V58.0533H132.743V58.0533Z" fill="black"/>
<path d="M173.451 35.7525H177.876C179.468 35.7525 180.707 35.3985 181.769 34.5135C182.654 33.6286 183.185 32.3897 183.185 30.7968C183.185 28.4959 182.3 27.0799 180.707 26.372C179.822 26.018 178.584 25.841 176.991 25.841H173.628V35.7525H173.451ZM163.362 58.0533V17.1685H177.699C181.238 17.1685 183.893 17.5224 185.663 18.2304C187.964 19.1153 189.911 20.7083 191.15 22.6552C192.566 24.7791 193.097 27.2569 193.097 30.0888C193.097 32.3897 192.566 34.5136 191.504 36.6375C190.442 38.7613 188.849 40.1773 186.902 41.2392V41.4162C187.256 41.9472 187.787 42.6551 188.495 43.8941L196.46 58.2303H185.309L178.053 44.425H173.274V58.2303H163.362V58.0533Z" fill="black"/>
<path d="M201.062 58.0533V17.1685H226.725V25.664H211.15V33.0976H223.539V41.7702H211.15V49.5578H227.61V58.0533H201.062Z" fill="black"/>
<path d="M233.982 58.0533V17.1685H259.646V25.664H244.07V33.0976H256.46V41.7702H244.07V49.5578H260.354V58.0533H233.982Z" fill="black"/>
<path d="M276.813 49.5578H280.884C284.424 49.5578 287.079 48.4958 289.026 46.5489C290.973 44.425 292.035 41.5932 292.035 37.6994C292.035 33.8056 290.973 30.9737 289.026 28.8498C287.079 26.9029 284.247 25.841 280.884 25.841H276.813V49.5578ZM266.902 58.0533V17.1685H281.415C287.964 17.1685 293.096 18.9384 296.813 22.6552C300.53 26.195 302.477 31.3277 302.477 37.6994C302.477 44.0711 300.53 49.2038 296.813 52.7436C293.096 56.4604 287.787 58.2303 281.415 58.2303H266.902V58.0533Z" fill="black"/>
<path d="M317.167 37.3444C317.167 40.8842 318.229 43.7161 320.353 46.1939C322.477 48.4948 325.132 49.7338 328.317 49.7338C331.503 49.7338 334.158 48.4948 336.282 46.1939C338.406 43.8931 339.468 40.8842 339.468 37.3444C339.468 33.9816 338.406 31.1497 336.282 29.0258C334.158 26.725 331.503 25.663 328.317 25.663C325.132 25.663 322.477 26.725 320.353 29.0258C318.229 31.1497 317.167 33.9816 317.167 37.3444ZM306.725 37.3444C306.725 31.3267 308.671 26.371 312.742 22.4772C316.813 18.4064 321.946 16.4595 328.14 16.4595C334.335 16.4595 339.468 18.4064 343.539 22.4772C347.609 26.548 349.556 31.5037 349.556 37.3444C349.556 43.3621 347.609 48.4948 343.539 52.5656C339.468 56.6364 334.335 58.7603 328.14 58.7603C321.946 58.7603 316.813 56.6364 312.742 52.5656C308.848 48.4948 306.725 43.5391 306.725 37.3444Z" fill="black"/>
<path d="M354.336 58.0533L357.699 17.1685H368.495L374.513 34.5135L376.637 41.2392H376.814C377.522 38.4074 378.23 36.2835 378.938 34.5135L384.955 17.1685H395.752L399.115 58.0533H389.026L387.787 39.6463C387.787 38.7613 387.61 37.6994 387.61 36.6375C387.61 35.5755 387.61 34.5136 387.61 33.8056V32.7436H387.433C386.548 35.5755 385.84 37.8764 385.132 39.6463L380.885 51.5047H372.212L367.964 39.6463L365.663 32.7436H365.486C365.663 35.2215 365.663 37.5224 365.486 39.6463L364.247 58.0533H354.336V58.0533Z" fill="black"/>
<path d="M81.9468 29.2032H40V53.274H81.7699V60.5306C81.7699 72.743 78.407 82.4775 59.823 82.6545H40V114.336C46.9026 118.584 51.8584 120 51.8584 120C51.8584 120 103.717 101.946 103.717 29.0262V7.25635C103.894 19.2917 98.407 29.0262 81.9468 29.2032Z" fill="#0F5431"/>
<path d="M132.92 99.2917V70.6191H143.54C146.549 70.6191 148.85 71.3271 150.62 72.566C152.389 73.805 153.274 75.7519 153.274 78.0528C153.274 79.2917 152.92 80.5306 152.389 81.5926C151.858 82.6545 150.973 83.5395 149.912 84.2474C151.504 84.7784 152.566 85.4864 153.274 86.7253C153.982 87.9642 154.336 89.2032 154.336 90.6191C154.336 93.451 153.274 95.7518 151.327 97.1678C149.204 98.5837 146.726 99.2917 143.54 99.2917H132.92V99.2917ZM140 81.7696H143.54C144.425 81.7696 144.956 81.5926 145.487 81.0616C145.841 80.5306 146.195 79.9997 146.195 79.1147C146.195 78.4067 146.018 77.8758 145.487 77.3448C145.133 76.8138 144.425 76.6368 143.54 76.6368H140V81.7696ZM140 93.274H144.248C145.133 93.274 146.018 92.92 146.549 92.389C147.08 91.8581 147.434 91.1501 147.434 90.2651C147.434 89.3802 147.257 88.6722 146.726 88.1412C146.195 87.6103 145.487 87.2563 144.425 87.2563H140.177V93.274H140Z" fill="#070707"/>
<path d="M158.938 99.2917V70.6191H169.027C171.505 70.6191 173.452 70.7961 174.691 71.3271C176.284 72.0351 177.7 73.097 178.584 74.5129C179.469 75.9289 180 77.6988 180 79.8227C180 81.4156 179.646 83.0085 178.938 84.4244C178.23 85.8404 177.169 86.9023 175.753 87.6103C176.107 87.9642 176.461 88.4952 176.815 89.3802L182.478 99.4687H174.691L169.558 89.7342H166.195V99.4687H158.938V99.2917ZM166.018 83.5395H169.027C170.266 83.5395 171.151 83.1855 171.682 82.6545C172.39 82.1236 172.567 81.2386 172.567 79.9997C172.567 78.4067 172.036 77.3448 170.797 76.9908C170.266 76.6368 169.381 76.6368 168.142 76.6368H165.841V83.5395H166.018Z" fill="#070707"/>
<path d="M183.894 84.7786C183.894 80.5308 185.309 77.168 188.141 74.3361C190.973 71.5043 194.513 70.0884 198.938 70.0884C203.363 70.0884 206.902 71.5043 209.734 74.3361C212.566 77.168 213.982 80.7078 213.982 84.7786C213.982 89.0264 212.566 92.5662 209.734 95.5751C206.902 98.4069 203.363 99.8229 198.938 99.8229C194.513 99.8229 190.973 98.4069 188.141 95.5751C185.132 92.5662 183.894 89.0264 183.894 84.7786ZM191.15 84.7786C191.15 87.2565 191.858 89.2034 193.274 90.9733C194.69 92.5662 196.637 93.4512 198.761 93.4512C201.062 93.4512 202.832 92.5662 204.248 90.9733C205.663 89.3804 206.371 87.2565 206.371 84.7786C206.371 82.4777 205.663 80.5308 204.248 78.9379C202.832 77.345 200.885 76.637 198.761 76.637C196.46 76.637 194.69 77.345 193.274 78.9379C191.858 80.3539 191.15 82.4777 191.15 84.7786Z" fill="#070707"/>
<path d="M218.23 99.2917V70.6191H225.31V81.7696H228.141L234.159 70.6191H241.77L233.982 84.4244L242.124 99.2917H234.336L228.318 87.6102H225.487V99.2917H218.23V99.2917Z" fill="#070707"/>
<path d="M245.487 99.2917V70.6191H263.54V76.6368H252.566V81.9465H261.239V87.9643H252.566V93.451H264.071V99.4687H245.487V99.2917Z" fill="#070707"/>
<path d="M268.496 99.2917V70.6191H278.584C281.062 70.6191 283.009 70.7961 284.248 71.3271C285.841 72.0351 287.257 73.097 288.142 74.5129C289.027 75.9289 289.558 77.6988 289.558 79.8227C289.558 81.4156 289.204 83.0085 288.496 84.4244C287.788 85.8404 286.726 86.9023 285.31 87.6103C285.664 87.9642 286.018 88.4952 286.372 89.3802L292.035 99.4687H284.248L279.115 89.7342H275.752V99.4687H268.496V99.2917ZM275.575 83.5395H278.584C279.823 83.5395 280.708 83.1855 281.239 82.6545C281.947 82.1236 282.124 81.2386 282.124 79.9997C282.124 78.4067 281.593 77.3448 280.354 76.9908C279.823 76.6368 278.938 76.6368 277.699 76.6368H275.398V83.5395H275.575Z" fill="#070707"/>
</svg>
